<svg xmlns="http://www.w3.org/2000/svg" xmlns:xlink="http://www.w3.org/1999/xlink" id="Layer_1" x="0px" y="0px" viewBox="0 0 114 71" style="enable-background:new 0 0 114 71;" xml:space="preserve"><style type="text/css">	.st0{fill:url(#SVGID_1_);}	.st1{fill:url(#SVGID_00000052062179914834654490000000173414601241862072_);}</style><g transform="matrix(1.000034,0,0,1.000074,-1.01,-1.01)"></g><g>	<linearGradient id="SVGID_1_" gradientUnits="userSpaceOnUse" x1="56.1415" y1="25.8621" x2="56.1415" y2="36.8477">		<stop offset="0" style="stop-color:#FFFFFF"></stop>		<stop offset="1" style="stop-color:#000000"></stop>	</linearGradient>	<path class="st0" d="M61.7,41.8c3-0.5,5.3-1,9.6-2c0.2,0,0.2-0.1,0-0.1c-1.9-0.1-3.5-0.2-4.6-0.3c-0.3,0-0.3-0.1-0.2-0.3  c0.3-0.4,0.6-0.5,1.4-0.5c0.8,0,2.6,0,4.5,0c3.8,0,7.5-0.9,12.1-2.5c0.1,0,0-0.1,0-0.1c-6.5,0.2-14.3,0.2-15.6,0.2  c-0.2,0-0.2-0.1,0-0.3c0.3-0.3,0.6-0.5,1.7-0.6c1.5-0.1,14.3-0.7,16.4-0.8c2.5-0.1,4-0.5,6-2c0.7-0.6,1.4-1.2,2.1-1.8  c0.1-0.1,0.1-0.2-0.1-0.2c-3.9,0.3-23.6,2.2-24.5,2.3c-1.7,0.2-2.5,0.7-3.1,1.7c-2.1,3.3-3,4.8-5.7,7  C61.5,41.8,61.5,41.8,61.7,41.8z M56.1,42.6c-0.1,0-0.1,0-0.2-0.1c-3.8-2.3-7.6-5.7-8.4-9.8c-0.3-1.5,0.3-1.8,1.3-2.2  c1.7-0.6,5.7-1.9,7.3-1.9c1.7,0,5.6,1.2,7.3,1.9c1,0.3,1.5,0.6,1.3,2.2c-0.8,4.1-4.6,7.5-8.4,9.8C56.3,42.5,56.2,42.6,56.1,42.6z   M50.5,41.8c0.2,0,0.2-0.1,0.1-0.2c-2.7-2.2-3.6-3.7-5.7-7c-0.6-1-1.4-1.5-3.1-1.7c-0.9-0.1-20.7-1.9-24.5-2.3  c-0.2,0-0.2,0.1-0.1,0.2c0.7,0.7,1.4,1.3,2.1,1.8c2,1.6,3.6,1.9,6,2c2.1,0.1,14.9,0.7,16.4,0.8c1.1,0.1,1.4,0.2,1.7,0.6  c0.1,0.2,0.2,0.3,0,0.3c-1.3,0-9.1-0.1-15.6-0.2c-0.1,0-0.1,0,0,0.1c4.6,1.5,8.3,2.5,12.1,2.5c1.9,0,3.8,0,4.5,0  c0.8,0,1.1,0.1,1.4,0.5c0.1,0.2,0.1,0.2-0.2,0.3c-1.1,0.1-2.7,0.2-4.6,0.3c-0.2,0-0.2,0.1,0,0.1C45.2,40.8,47.5,41.3,50.5,41.8  L50.5,41.8z M56.1,43.8c0.1,0,0.2,0,0.2-0.1c4.6-2.3,6.8-4.4,9.5-8.8c1-1.7,1.6-2.5,4.1-2.9c3.9-0.6,21.4-1.8,24.8-2.3  c1.5-0.2,1.9-0.4,2.6-1.2c0.1-0.1,0.1-0.2-0.1-0.2c-0.4,0-17.9,0.8-28.4,1.2c-2.6,0.1-3.3,0.1-5.5-0.6c-3.2-1-6.1-1.7-7.3-1.7  c-1.2,0-4.1,0.7-7.3,1.6c-2.1,0.7-2.9,0.8-5.5,0.6c-10.5-0.4-27.9-1.1-28.4-1.2c-0.2,0-0.2,0.1-0.1,0.2c0.7,0.7,1.1,1,2.6,1.2  c3.5,0.5,21,1.7,24.8,2.3c2.5,0.4,3.1,1.2,4.1,2.9c2.7,4.4,4.9,6.5,9.5,8.8C56,43.7,56.1,43.8,56.1,43.8z"></path>			<linearGradient id="SVGID_00000012436692416644774960000007644435585739506108_" gradientUnits="userSpaceOnUse" x1="56.0592" y1="25.8621" x2="56.0592" y2="36.8477">		<stop offset="0" style="stop-color:#FFFFFF"></stop>		<stop offset="1" style="stop-color:#000000"></stop>	</linearGradient>	<path style="fill:url(#SVGID_00000012436692416644774960000007644435585739506108_);" d="M62.3,33.1c-0.3-0.1-0.6-0.2-0.6-0.5  c0-0.1,0.1-0.2,0.3-0.2c0.2,0,0.4,0.1,0.6,0.2l0.1-0.3c-0.2-0.1-0.4-0.1-0.7-0.1c-0.6,0-0.9,0.2-0.9,0.6c0,0.3,0.2,0.5,0.6,0.7  c0.3,0.1,0.5,0.2,0.5,0.4c0,0.2-0.1,0.3-0.4,0.3c-0.2,0-0.5-0.1-0.7-0.2l-0.1,0.4c0.2,0.1,0.5,0.1,0.7,0.1c0.5,0,0.9-0.2,0.9-0.6  C62.9,33.4,62.6,33.2,62.3,33.1z M53.3,32.5l-0.1-0.3h-1.6l0,0.1l0.1,0c0.1,0,0.1,0.1,0.1,0.1v1.9h1.5v-0.3h-1v-0.7h0.9v-0.3h-0.9  v-0.6L53.3,32.5L53.3,32.5z M59.2,33.1c-0.3-0.1-0.6-0.2-0.6-0.5c0-0.1,0.1-0.2,0.3-0.2c0.2,0,0.4,0.1,0.6,0.2l0.1-0.3  c-0.2-0.1-0.4-0.1-0.7-0.1c-0.6,0-0.9,0.2-0.9,0.6c0,0.3,0.2,0.5,0.6,0.7c0.3,0.1,0.5,0.2,0.5,0.4c0,0.2-0.1,0.3-0.4,0.3  c-0.2,0-0.5-0.1-0.7-0.2l0,0.4c0.2,0.1,0.5,0.1,0.7,0.1c0.5,0,0.9-0.2,0.9-0.6S59.5,33.2,59.2,33.1L59.2,33.1z M60.1,32.3  L60.1,32.3c0.2,0.1,0.2,0.1,0.2,0.2v1.9h0.5v-2.2h-0.6L60.1,32.3z M57.8,32.5l-0.1-0.3h-1.6l0,0.1l0.1,0c0.1,0,0.1,0.1,0.1,0.1v1.9  h1.5v-0.3h-1v-0.7h0.9v-0.3h-0.9v-0.6L57.8,32.5L57.8,32.5z M55.3,33.7l-1.2-1.5h-0.5l-0.1,0.1l0.1,0c0.1,0,0.1,0.1,0.1,0.1v1.9  h0.3v-1.4l1.1,1.4h0.4v-2.2h-0.3L55.3,33.7z M50.5,33.3l0.2,0.1c0.1,0,0.1,0.1,0.1,0.1V34c-0.1,0.1-0.2,0.1-0.3,0.1  c-0.4,0-0.7-0.4-0.7-0.8c0-0.5,0.3-0.9,0.7-0.9c0.2,0,0.5,0.1,0.6,0.2l0.1-0.4c-0.2-0.1-0.5-0.2-0.8-0.2c-0.7,0-1.2,0.4-1.2,1.2  c0,0.7,0.5,1.1,1.2,1.1c0.3,0,0.6-0.1,0.9-0.2v-1h-0.7L50.5,33.3z"></path></g></svg>