<svg xmlns="http://www.w3.org/2000/svg" xmlns:xlink="http://www.w3.org/1999/xlink" id="Layer_1" x="0px" y="0px" viewBox="0 0 114 71" style="enable-background:new 0 0 114 71;" xml:space="preserve"><style type="text/css">	.st0{fill:url(#SVGID_1_);}</style><g transform="matrix(1.000034,0,0,1.000074,-1.01,-1.01)"></g><g>	<radialGradient id="SVGID_1_" cx="57" cy="33.9842" r="19.0976" gradientUnits="userSpaceOnUse">		<stop offset="0" style="stop-color:#FFFFFF"></stop>		<stop offset="1" style="stop-color:#000000"></stop>	</radialGradient>	<path class="st0" d="M59.5,20c2.7,0.5,5.3,0.9,7.9,1.6c3.7,1,7,2.8,9.7,5.6c3.8,4,4,9.2,0.3,13.4c-3.1,3.5-7.2,5.4-11.7,6.4  c-7.9,1.8-15.6,1.5-23-1.9c-2.4-1.1-4.5-2.5-6.2-4.5c-3.6-4.2-3.5-9.3,0.3-13.4c3.5-3.6,7.9-5.4,12.7-6.4c1.6-0.3,3.3-0.5,4.9-0.8  C56.2,20,57.8,20,59.5,20z M53.8,34c-5-1-9.7-2.1-14.5-3.1c4.2-0.2,8.4-0.2,12.6-0.2c3.1,0,3.1,0,3.7-3c0.4-2.3,0.8-4.5,1.3-6.8  c-5-0.3-11.4,1.6-15.2,5.2c-3,2.9-4.7,6.3-3.4,10.5c1.4,4.7,5.1,7.1,9.3,8.9C49.8,41.6,51.7,37.9,53.8,34z M66.3,45.5  c2.8-1.1,5.1-2.6,7-4.7c3.5-4,3.6-9.1,0.3-13.2c-2.1-2.6-4.8-4.2-7.9-5.3c-2.8-1-5.6-1.5-8.7-1.5c0.6,2.9,1.2,5.7,1.6,8.5  c0.2,1.2,0.7,1.4,1.8,1.4c4.3-0.1,8.7,0,13,0c0.4,0,0.8,0,1.2,0c0,0.1,0,0.2,0,0.2c-4.8,1-9.5,2-14.5,3  C62.2,37.9,64.2,41.7,66.3,45.5z M66.1,45.6C63,42.3,60,39.3,57,36.1c-3,3.2-6,6.3-9.1,9.5C54.1,47.6,60,47.7,66.1,45.6z"></path></g></svg>