<svg xmlns="http://www.w3.org/2000/svg" xmlns:xlink="http://www.w3.org/1999/xlink" viewBox="0 0 114 71"><clipPath id="a"><path d="m57.2 51.3c-8.7 0-15.7-7-15.7-15.7s7-15.7 15.7-15.7 15.7 7 15.7 15.7c0 8.6-7 15.7-15.7 15.7zm43.1-24.8h-27.3c-3.1-5.5-9.1-9.2-15.8-9.2-6.8 0-12.7 3.7-15.8 9.2h-1.1-26.3s.9 1.2 2.3 3c.7.9 1.5 1.8 2.5 2.9.9 1 1.9 2.1 3 3.2l2.9 2.9c1.2 1.1 2.3 2.2 3.6 3.2 1.2.9 2.3 1.9 3.6 2.9 1.4 1.1 2.9 2.1 4.4 3.1h4.9 2.4c3.3 3.7 8.1 6 13.6 6 5.3 0 10.2-2.3 13.6-6h7.2c13.6-8.9 22.3-21.2 22.3-21.2z"></path></clipPath><clipPath id="b"><path d="m14 17.3h86.4v36.4h-86.4z"></path></clipPath><radialGradient id="c" cx="39.6306" cy="48.4871" gradientTransform="matrix(1 0 0 -1 0 72)" gradientUnits="userSpaceOnUse" r="93.862"><stop offset="0" stop-color="#fff"></stop><stop offset="1"></stop></radialGradient><clipPath id="d"><path d="m57.3 51.3c-8.7 0-15.7-7-15.7-15.7s7-15.7 15.7-15.7 15.7 7 15.7 15.7c0 8.6-7 15.7-15.7 15.7zm43.1-24.8h-27.3c-3.1-5.5-9.1-9.2-15.8-9.2-6.8 0-12.7 3.7-15.8 9.2h-1.1-26.3s.9 1.2 2.3 3c.7.9 1.5 1.8 2.5 2.9.9 1 1.9 2.1 3 3.2l2.9 2.9c1.2 1.1 2.3 2.2 3.6 3.2 1.2.9 2.3 1.9 3.6 2.9 1.4 1.1 2.9 2.1 4.4 3.1h4.9 2.4c3.3 3.7 8.1 6 13.6 6 5.3 0 10.2-2.3 13.6-6h7.2c13.6-8.9 22.3-21.2 22.3-21.2z"></path></clipPath><clipPath id="e"><path d="m14.1 17.3h86.4v36.4h-86.4z"></path></clipPath><radialGradient id="f" cx="57.0423" cy="35.7482" gradientUnits="userSpaceOnUse" r="14.1122"><stop offset="0" stop-color="#fff"></stop><stop offset=".04643357" stop-color="#e5e5e5"></stop><stop offset=".1511" stop-color="#b0b0b0"></stop><stop offset=".26" stop-color="#818181"></stop><stop offset=".3708" stop-color="#595959"></stop><stop offset=".4842" stop-color="#393939"></stop><stop offset=".6008" stop-color="#202020"></stop><stop offset=".722" stop-color="#0e0e0e"></stop><stop offset=".8508" stop-color="#030303"></stop><stop offset="1"></stop></radialGradient><path d="m57.2 51.3c-8.7 0-15.7-7-15.7-15.7s7-15.7 15.7-15.7 15.7 7 15.7 15.7c0 8.6-7 15.7-15.7 15.7zm43.1-24.8h-27.3c-3.1-5.5-9.1-9.2-15.8-9.2-6.8 0-12.7 3.7-15.8 9.2h-1.1-26.3s.9 1.2 2.3 3c.7.9 1.5 1.8 2.5 2.9.9 1 1.9 2.1 3 3.2l2.9 2.9c1.2 1.1 2.3 2.2 3.6 3.2 1.2.9 2.3 1.9 3.6 2.9 1.4 1.1 2.9 2.1 4.4 3.1h4.9 2.4c3.3 3.7 8.1 6 13.6 6 5.3 0 10.2-2.3 13.6-6h7.2c13.6-8.9 22.3-21.2 22.3-21.2z" fill="#d6d6d6"></path><path d="m57.2 51.3c-8.7 0-15.7-7-15.7-15.7s7-15.7 15.7-15.7 15.7 7 15.7 15.7c0 8.6-7 15.7-15.7 15.7zm43.1-24.8h-27.3c-3.1-5.5-9.1-9.2-15.8-9.2-6.8 0-12.7 3.7-15.8 9.2h-1.1-26.3s.9 1.2 2.3 3c.7.9 1.5 1.8 2.5 2.9.9 1 1.9 2.1 3 3.2l2.9 2.9c1.2 1.1 2.3 2.2 3.6 3.2 1.2.9 2.3 1.9 3.6 2.9 1.4 1.1 2.9 2.1 4.4 3.1h4.9 2.4c3.3 3.7 8.1 6 13.6 6 5.3 0 10.2-2.3 13.6-6h7.2c13.6-8.9 22.3-21.2 22.3-21.2z" fill="#d6d6d6"></path><g clip-path="url(#a)"><path d="m14 17.3h86.4v36.4h-86.4z" fill="#d6d6d6"></path><path d="m14 17.3h86.4v36.4h-86.4z" fill="#d6d6d6"></path><g clip-path="url(#b)"><image height="3043" transform="matrix(.01198102 0 0 -.01198102 -77.8786 95.3477)" width="7156"></image></g></g><path d="m57.3 51.3c-8.7 0-15.7-7-15.7-15.7s7-15.7 15.7-15.7 15.7 7 15.7 15.7c0 8.6-7 15.7-15.7 15.7zm43.1-24.8h-27.3c-3.1-5.5-9.1-9.2-15.8-9.2-6.8 0-12.7 3.7-15.8 9.2h-1.1-26.3s.9 1.2 2.3 3c.7.9 1.5 1.8 2.5 2.9.9 1 1.9 2.1 3 3.2l2.9 2.9c1.2 1.1 2.3 2.2 3.6 3.2 1.2.9 2.3 1.9 3.6 2.9 1.4 1.1 2.9 2.1 4.4 3.1h4.9 2.4c3.3 3.7 8.1 6 13.6 6 5.3 0 10.2-2.3 13.6-6h7.2c13.6-8.9 22.3-21.2 22.3-21.2z" fill="url(#c)"></path><path d="m57.3 51.3c-8.7 0-15.7-7-15.7-15.7s7-15.7 15.7-15.7 15.7 7 15.7 15.7c0 8.6-7 15.7-15.7 15.7zm43.1-24.8h-27.3c-3.1-5.5-9.1-9.2-15.8-9.2-6.8 0-12.7 3.7-15.8 9.2h-1.1-26.3s.9 1.2 2.3 3c.7.9 1.5 1.8 2.5 2.9.9 1 1.9 2.1 3 3.2l2.9 2.9c1.2 1.1 2.3 2.2 3.6 3.2 1.2.9 2.3 1.9 3.6 2.9 1.4 1.1 2.9 2.1 4.4 3.1h4.9 2.4c3.3 3.7 8.1 6 13.6 6 5.3 0 10.2-2.3 13.6-6h7.2c13.6-8.9 22.3-21.2 22.3-21.2z" fill="url(#c)"></path><path d="m57.3 51.3c-8.7 0-15.7-7-15.7-15.7s7-15.7 15.7-15.7 15.7 7 15.7 15.7c0 8.6-7 15.7-15.7 15.7zm43.1-24.8h-27.3c-3.1-5.5-9.1-9.2-15.8-9.2-6.8 0-12.7 3.7-15.8 9.2h-1.1-26.3s.9 1.2 2.3 3c.7.9 1.5 1.8 2.5 2.9.9 1 1.9 2.1 3 3.2l2.9 2.9c1.2 1.1 2.3 2.2 3.6 3.2 1.2.9 2.3 1.9 3.6 2.9 1.4 1.1 2.9 2.1 4.4 3.1h4.9 2.4c3.3 3.7 8.1 6 13.6 6 5.3 0 10.2-2.3 13.6-6h7.2c13.6-8.9 22.3-21.2 22.3-21.2z" fill="url(#c)"></path><g clip-path="url(#d)"><g fill="url(#c)"><path d="m14.1 17.3h86.4v36.4h-86.4z"></path><path d="m14.1 17.3h86.4v36.4h-86.4z"></path><path d="m14.1 17.3h86.4v36.4h-86.4z"></path></g><g clip-path="url(#e)"><image height="3043" transform="matrix(.01198102 0 0 -.01198102 -77.761 95.3477)" width="7156"></image></g></g><circle clip-rule="evenodd" cx="57.1" cy="35.9" fill="url(#f)" fill-rule="evenodd" r="13.8"></circle><path d="m40.9 41.5 1.1 2.2-9.5.1-2.3-2.5z" fill="#dfdfdf"></path><path d="m39.9 35.5.2 2.4-13.9-.1-2.7-2.5z" fill="#dfdfdf"></path><path d="m40.6 29.4-.4 2.3h-19.2l-2.8-2.5z" fill="#dfdfdf"></path><path d="m23.7 35.3h15.8c0 .8.3 1.9.4 2.6" fill="none"></path><path clip-rule="evenodd" d="m40 31.7c.1-.8.3-1.3.5-2.1h-22l-.2-.4h22.7c-.2.7-.5 1.8-.6 2.6z" fill-rule="evenodd"></path><path clip-rule="evenodd" d="m41.7 43.8c-.4-.7-.6-1.3-.9-2.1h-10.2l-.5-.4h11.1c.3.8.8 1.8 1.2 2.5z" fill-rule="evenodd"></path><path clip-rule="evenodd" d="m39.8 37.9c-.1-.7-.1-1.4-.2-2.2h-15.6l-.5-.4h16.6c0 .8.2 1.9.3 2.6z" fill-rule="evenodd"></path><path d="m72.5 41.6-1 2.3h9.5l2.3-2.5z" fill="#dfdfdf"></path><path d="m73.6 35.6-.3 2.4 14-.1 2.7-2.5z" fill="#dfdfdf"></path><path d="m72.8 29.5.5 2.4 19.2-.1 2.8-2.5z" fill="#dfdfdf"></path><path d="m89.7 35.4h-15.8c0 .8-.3 1.9-.4 2.6" fill="none"></path><g clip-rule="evenodd" fill-rule="evenodd"><path d="m73.5 31.9c-.1-.8-.3-1.3-.5-2.1h22l.2-.4h-22.7c.2.7.5 1.8.6 2.6z"></path><path d="m71.7 43.9c.4-.7.6-1.3.9-2.1h10.2l.5-.4h-11.1c-.3.8-.8 1.8-1.2 2.5z"></path><path d="m73.7 38c.1-.7.1-1.4.2-2.2h15.6l.5-.4h-16.6c0 .8-.2 1.9-.3 2.6z"></path><path d="m55.2 39.9h1.9v-7.7h-1.9z" fill="#fff"></path><path d="m51.6 32.2h-.2l-2.2 5.1-2-5.1h-2.1v7.7h1.6v-4.6l1.8 4.6h1.1l2-4.5v4.5h1.9v-7.7z" fill="#fff"></path><path d="m63.7 36.9-3.6-4.7h-1.4v7.7h1.6v-4.6l3.6 4.6h1.5v-7.7h-1.7z" fill="#fff"></path><path d="m67.1 39.9h1.8v-7.7h-1.8z" fill="#fff"></path></g></svg>